# xmcd
#
# Track frame offsets: 
#        150
#        12742
#        26435
#        39562
#        53478
#        66114
#        80854
#        96666
#        109737
#        123376
#        139486
#        154062
#        172603
#        184699
#        198956
#        214136
#        227841
#        245407
#        260328
#        291882
#
# Disc length: 4152 seconds
#
# Revision: 1
# Processed by: cddbd v1.5.2PL0 Copyright (c) Steve Scherf et al.
# Submitted via: ExactAudioCopyFreeDBPlugin 1.0
#
DISCID=20103614
DTITLE=Various Artist - 2005 - Motown- The Classic Years Cd 2
DYEAR=2005
DGENRE=Soul
TTITLE0=The Supremes - You Can't Hurry Love
TTITLE1=Four Tops - Reach Out I'll Be There
TTITLE2=Martha and The Vandellas - Jimmy Mack
TTITLE3=Marvin Gaye and Tammi Terrell - Your Precious Love
TTITLE4=Gladys Knight and The Pips - I Heard It Through The Grapevine
TTITLE5=Marvin Gaye - I Heard It Through The Grapevine
TTITLE6=David Ruffin - My Whole World Ended (The Moment You Left Me)
TTITLE7=The Temptations - I Can't Get Next To You
TTITLE8=Jackson 5 - I Want You Back
TTITLE9=Diana Ross and The Supremes - Someday We'll Be Together
TTITLE10=The Supremes - Up The Ladder To The Roof
TTITLE11=The Temptations - Ball Of Confusion (That's What The World Is
TTITLE11=Today)
TTITLE12=Stevie Wonder - Signed Sealed Delivered I'm Yours
TTITLE13=The Spinners - It's A Shame
TTITLE14=Edwin Starr - War
TTITLE15=Smokey Robinson and The Miracles - The Tears Of A Clown
TTITLE16=Marvin Gaye - What's Going On
TTITLE17=The Undisputed Truth - Smiling Faces Sometimes
TTITLE18=The Temptations - Papa Was A Rollin' Stone
TTITLE19=Gladys Knight and The Pips - Neither One Of Us (Wants To Be The
TTITLE19=First To Say Goodbye)
EXTD=YEAR: 2000\n
EXTT0=
EXTT1=
EXTT2=
EXTT3=
EXTT4=
EXTT5=
EXTT6=
EXTT7=
EXTT8=
EXTT9=
EXTT10=
EXTT11=
EXTT12=
EXTT13=
EXTT14=
EXTT15=
EXTT16=
EXTT17=
EXTT18=
EXTT19=
PLAYORDER=
